<svg width="357" height="230" viewBox="0 0 357 230" fill="none" xmlns="http://www.w3.org/2000/svg">
<path d="M354.98 2.70996H26.85C12.89 2.70996 1.52002 14.08 1.52002 28.04V201.19C1.52002 215.16 12.88 226.52 26.85 226.52H329.65C343.62 226.52 354.98 215.16 354.98 201.19V2.70996V2.70996Z" fill="white"/>
<path d="M26.8497 8.16992C15.8897 8.16992 6.96973 17.0899 6.96973 28.0499V139.01H349.53V8.16992H26.8497Z" fill="black"/>
<path d="M7 200.74C7 211.7 15.92 220.62 26.88 220.62H329.68C340.64 220.62 349.56 211.7 349.56 200.74V144H7V200.74Z" fill="black"/>
<path d="M251.4 51.7798V57.2298H288.9L251.4 94.7298L255.26 98.5798L302.06 51.7798H251.4Z" fill="#F7B749"/>
<path d="M307.52 46.3299L312.97 40.8699H251.4V46.3299H307.52Z" fill="#ED362F"/>
<path d="M311.371 50.18V106.29H316.821V44.73L311.371 50.18Z" fill="#43B85C"/>
<path d="M305.92 106.29V55.6299L259.11 102.44L262.97 106.29L300.47 68.7899V106.29H305.92Z" fill="#2CB4E2"/>
<path d="M48.5202 68.6498C45.5102 68.6498 43.2802 67.9298 41.8402 66.4898C40.4002 65.0498 39.6802 62.8198 39.6802 59.8098V50.6898C39.6802 47.6498 40.4002 45.4198 41.8502 43.9898C43.3002 42.5598 45.5202 41.8598 48.5202 41.8898H53.2502C56.2802 41.8898 58.5102 42.6098 59.9402 44.0398C61.3702 45.4698 62.0902 47.6998 62.0902 50.7298V59.8098C62.0902 62.8198 61.3702 65.0498 59.9402 66.4898C58.5102 67.9298 56.2802 68.6498 53.2502 68.6498H48.5202V68.6498ZM48.5202 65.3298H53.2502C54.6602 65.3298 55.7602 65.1598 56.5702 64.8298C57.3702 64.4898 57.9402 63.9298 58.2802 63.1198C58.6202 62.3198 58.7802 61.2098 58.7802 59.7998V50.7198C58.7802 49.3298 58.6102 48.2298 58.2802 47.4298C57.9402 46.6298 57.3702 46.0598 56.5702 45.7098C55.7702 45.3698 54.6602 45.1998 53.2502 45.1998H48.5202C47.1302 45.1898 46.0302 45.3498 45.2202 45.6698C44.4102 45.9898 43.8502 46.5598 43.5002 47.3698C43.1602 48.1698 42.9902 49.2798 42.9902 50.6898V59.8098C42.9902 61.2198 43.1602 62.3198 43.4902 63.1298C43.8302 63.9298 44.4002 64.4998 45.2002 64.8398C46.0002 65.1798 47.1102 65.3398 48.5202 65.3398V65.3298Z" fill="white"/>
<path d="M70.62 76.5399C69.51 76.5399 68.96 75.9899 68.96 74.8799V50.2999C68.96 49.1899 69.51 48.6399 70.62 48.6399C71.73 48.6399 72.28 49.1899 72.28 50.2999V50.7899C72.99 50.0799 73.87 49.5399 74.91 49.1799C75.96 48.8199 77.13 48.6399 78.43 48.6399H79.93C82.56 48.6399 84.51 49.2699 85.77 50.5299C87.03 51.7899 87.66 53.7399 87.66 56.3699V60.9099C87.66 63.5299 87.03 65.4699 85.77 66.7399C84.51 68.0099 82.56 68.6399 79.93 68.6399H72.27V74.8799C72.27 75.9899 71.72 76.5399 70.61 76.5399H70.62ZM72.28 65.3299H79.94C81.66 65.3299 82.83 65.0199 83.44 64.3999C84.05 63.7799 84.36 62.6199 84.36 60.9099V56.3699C84.36 54.6499 84.06 53.4799 83.44 52.8699C82.83 52.2599 81.66 51.9499 79.94 51.9499H78.44C76.79 51.9499 75.37 52.1499 74.18 52.5399C72.98 52.9299 72.35 53.5599 72.29 54.4099V65.3199L72.28 65.3299Z" fill="white"/>
<path d="M96.9003 60.0099V60.9599C96.9003 62.6599 97.2103 63.8099 97.8303 64.4199C98.4503 65.0299 99.6103 65.3399 101.32 65.3399H104.56C105.9 65.3399 106.89 65.2199 107.54 64.9699C108.18 64.7199 108.61 64.2799 108.82 63.6499C108.96 63.1499 109.17 62.7699 109.42 62.5099C109.68 62.2499 110.07 62.1099 110.59 62.1099C111.11 62.1099 111.56 62.2599 111.85 62.5399C112.14 62.8299 112.23 63.2499 112.12 63.7999C111.83 65.4299 111.06 66.6499 109.79 67.4499C108.53 68.2499 106.78 68.6499 104.54 68.6499H101.3C98.6803 68.6499 96.7403 68.0199 95.4703 66.7599C94.2003 65.4999 93.5703 63.5599 93.5703 60.9599V56.3799C93.5703 53.7099 94.2003 51.7499 95.4703 50.4899C96.7403 49.2299 98.6803 48.6199 101.3 48.6399H104.54C107.17 48.6399 109.12 49.2699 110.38 50.5199C111.64 51.7799 112.27 53.7299 112.27 56.3699V58.3399C112.27 59.4499 111.72 59.9999 110.61 59.9999H96.8803L96.9003 60.0099ZM101.32 51.9599C99.6103 51.9299 98.4503 52.2299 97.8303 52.8499C97.2103 53.4699 96.9003 54.6499 96.9003 56.3799V56.6999H108.98V56.3799C108.98 54.6599 108.67 53.4899 108.06 52.8799C107.45 52.2699 106.28 51.9599 104.56 51.9599H101.32Z" fill="white"/>
<path d="M120.81 68.6499C119.71 68.6499 119.15 68.0999 119.15 66.9899V50.2999C119.15 49.1899 119.7 48.6399 120.81 48.6399C121.92 48.6399 122.47 49.1899 122.47 50.2999V50.9499C123.86 49.4099 125.92 48.6399 128.63 48.6399H129.73C132.36 48.6399 134.31 49.2699 135.57 50.5299C136.83 51.7899 137.46 53.7399 137.46 56.3699V66.9899C137.46 68.0999 136.91 68.6499 135.8 68.6499C134.69 68.6499 134.14 68.0999 134.14 66.9899V56.3699C134.14 54.6499 133.83 53.4799 133.2 52.8699C132.57 52.2599 131.41 51.9499 129.72 51.9499H128.62C127.04 51.9499 125.67 52.1299 124.5 52.4899C123.33 52.8499 122.65 53.4199 122.47 54.1999V66.9899C122.47 68.0999 121.92 68.6499 120.81 68.6499Z" fill="white"/>
<path d="M146.54 68.65C145.98 68.65 145.56 68.52 145.29 68.25C145.02 67.98 144.89 67.56 144.89 67V43.5999C144.89 43.0199 145.03 42.6 145.29 42.34C145.56 42.08 145.98 41.95 146.54 41.95C147.1 41.95 147.54 42.08 147.8 42.34C148.06 42.6 148.19 43.0199 148.19 43.5999V67C148.19 67.57 148.06 67.98 147.8 68.25C147.54 68.52 147.12 68.65 146.54 68.65Z" fill="white"/>
<path d="M157.67 68.6499C156.56 68.6499 156.01 68.0999 156.01 66.9899V50.2999C156.01 49.1899 156.56 48.6399 157.67 48.6399C158.78 48.6399 159.33 49.1899 159.33 50.2999V50.9499C160.72 49.4099 162.78 48.6399 165.49 48.6399H166.59C169.22 48.6399 171.17 49.2699 172.43 50.5299C173.69 51.7899 174.32 53.7399 174.32 56.3699V66.9899C174.32 68.0999 173.77 68.6499 172.66 68.6499C171.55 68.6499 171 68.0999 171 66.9899V56.3699C171 54.6499 170.69 53.4799 170.06 52.8699C169.44 52.2599 168.28 51.9499 166.58 51.9499H165.48C163.9 51.9499 162.53 52.1299 161.36 52.4899C160.19 52.8499 159.51 53.4199 159.33 54.1999V66.9899C159.33 68.0999 158.78 68.6499 157.67 68.6499Z" fill="white"/>
<path d="M184.15 68.6499C183.05 68.6499 182.49 68.0999 182.49 66.9899V51.9499H181.03C179.93 51.9499 179.37 51.3999 179.37 50.2899C179.37 49.1799 179.92 48.6299 181.03 48.6299H182.49V48.4699C182.49 45.8799 183.11 43.9599 184.36 42.7199C185.61 41.4799 187.52 40.8599 190.1 40.8599C191.05 40.8599 191.52 41.4099 191.52 42.5199C191.52 43.6299 191.05 44.1799 190.1 44.1799C188.44 44.1799 187.31 44.4799 186.71 45.0699C186.1 45.6599 185.8 46.7999 185.8 48.4799V48.6399H189.87C190.97 48.6399 191.53 49.1899 191.53 50.2999C191.53 51.4099 190.98 51.9599 189.87 51.9599H185.8V66.9999C185.8 68.1099 185.25 68.6599 184.14 68.6599L184.15 68.6499Z" fill="white"/>
<path d="M198.24 68.6499C197.13 68.6499 196.58 68.0999 196.58 66.9899V50.2999C196.58 49.1899 197.13 48.6399 198.24 48.6399C199.35 48.6399 199.9 49.1899 199.9 50.2999V51.8399C200.68 50.7899 201.66 49.9899 202.87 49.4499C204.07 48.9099 205.45 48.6399 207 48.6399C208.1 48.6399 208.66 49.1899 208.66 50.2999C208.66 51.4099 208.11 51.9599 207 51.9599C204.72 51.9599 202.99 52.3799 201.79 53.2199C200.59 54.0599 199.96 55.1699 199.9 56.5499V66.9899C199.9 68.0999 199.35 68.6499 198.24 68.6499V68.6499Z" fill="white"/>
<path d="M218.01 68.6499C215.8 68.6499 214.15 68.1099 213.08 67.0299C212.01 65.9499 211.46 64.3099 211.46 62.0999C211.46 59.8899 212 58.2499 213.07 57.1699C214.14 56.0899 215.79 55.5499 218.01 55.5499H226.36C226.28 54.1699 225.92 53.2299 225.27 52.7199C224.63 52.2099 223.52 51.9599 221.96 51.9599H219.67C218.35 51.9599 217.37 52.0499 216.73 52.2299C216.08 52.4099 215.63 52.7299 215.37 53.1899C215.13 53.7399 214.89 54.1199 214.64 54.3299C214.39 54.5399 214.02 54.6499 213.52 54.6499C212.97 54.6499 212.53 54.4999 212.22 54.1899C211.91 53.8799 211.81 53.4699 211.94 52.9599C212.33 51.4699 213.16 50.3899 214.41 49.6899C215.67 48.9999 217.42 48.6499 219.67 48.6499H221.96C224.59 48.6499 226.54 49.2799 227.8 50.5399C229.06 51.7999 229.69 53.7499 229.69 56.3799V66.9999C229.69 68.1099 229.14 68.6599 228.03 68.6599C226.92 68.6599 226.37 68.1099 226.37 66.9999V66.1099C224.96 67.8099 222.91 68.6599 220.21 68.6599H218L218.01 68.6499ZM218.01 65.3299H220.22C221.19 65.3299 222.11 65.2399 222.96 65.0599C223.81 64.8799 224.55 64.5599 225.16 64.0799C225.77 63.6099 226.18 62.9299 226.37 62.0499V58.8499H218C216.7 58.8499 215.83 59.0699 215.41 59.4999C214.99 59.9299 214.77 60.7999 214.77 62.0799C214.77 63.3599 214.98 64.2499 215.41 64.6699C215.84 65.0999 216.7 65.3099 218 65.3099L218.01 65.3299Z" fill="white"/>
<path d="M45.6102 106.29C43.5902 106.29 42.1002 105.81 41.1302 104.84C40.1602 103.87 39.6802 102.38 39.6802 100.36V89.4601C39.6802 89.0901 39.7702 88.8101 39.9602 88.6301C40.1502 88.4501 40.4202 88.3501 40.7902 88.3501C41.1602 88.3501 41.4402 88.4401 41.6202 88.6301C41.8002 88.8201 41.9002 89.0901 41.9002 89.4601V100.36C41.9002 101.3 42.0102 102.04 42.2402 102.58C42.4702 103.12 42.8502 103.5 43.3802 103.72C43.9202 103.95 44.6602 104.06 45.6002 104.06H48.7702C49.7102 104.06 50.4502 103.95 50.9902 103.72C51.5302 103.5 51.9102 103.11 52.1302 102.58C52.3602 102.04 52.4702 101.3 52.4702 100.36V89.4601C52.4702 89.0901 52.5602 88.8101 52.7502 88.6301C52.9402 88.4501 53.2102 88.3501 53.5802 88.3501C53.9502 88.3501 54.2302 88.4401 54.4102 88.6301C54.5902 88.8201 54.6902 89.0901 54.6902 89.4601V100.36C54.6902 102.38 54.2102 103.87 53.2502 104.84C52.2902 105.81 50.7902 106.29 48.7702 106.29H45.6002H45.6102Z" fill="white"/>
<path d="M66.9401 106.29C65.4301 106.29 64.2601 105.99 63.4201 105.38C62.5801 104.77 62.0501 103.83 61.8401 102.56C61.8001 102.17 61.8801 101.88 62.0801 101.69C62.2701 101.5 62.5601 101.4 62.9301 101.4C63.3001 101.4 63.5701 101.49 63.7401 101.66C63.9101 101.84 64.0301 102.11 64.0901 102.48C64.2201 103.09 64.5101 103.51 64.9401 103.73C65.3801 103.96 66.0401 104.07 66.9401 104.07H70.7501C71.8901 104.07 72.6601 103.87 73.0701 103.46C73.4801 103.05 73.6801 102.29 73.6801 101.17C73.6801 100.05 73.4701 99.2499 73.0501 98.8399C72.6301 98.4199 71.8601 98.2099 70.7501 98.2099H67.4701C65.8001 98.2099 64.5701 97.7999 63.7601 96.9899C62.9501 96.1799 62.5501 94.9299 62.5501 93.2699C62.5501 91.6099 62.9501 90.3799 63.7501 89.5799C64.5501 88.7799 65.7801 88.3799 67.4501 88.3799H70.6001C72.0001 88.3799 73.1001 88.6699 73.9001 89.2399C74.7001 89.8099 75.2001 90.6899 75.4101 91.8699C75.4601 92.2499 75.3901 92.5399 75.2001 92.7399C75.0101 92.9399 74.7101 93.0399 74.3301 93.0399C73.9801 93.0399 73.7101 92.9499 73.5401 92.7599C73.3601 92.5699 73.2501 92.3099 73.2001 91.9499C73.0601 91.4299 72.7901 91.0699 72.3901 90.8899C71.9901 90.6999 71.4001 90.5999 70.6001 90.5999H67.4501C66.3901 90.5999 65.6801 90.7899 65.3201 91.1599C64.9601 91.5299 64.7801 92.2399 64.7801 93.2699C64.7801 94.2999 64.9601 95.0299 65.3301 95.4099C65.7001 95.7999 66.4201 95.9899 67.4701 95.9899H70.7501C72.4901 95.9899 73.7801 96.4099 74.6301 97.2599C75.4801 98.1099 75.9101 99.4099 75.9101 101.18C75.9101 102.95 75.4901 104.23 74.6401 105.06C73.7901 105.89 72.5001 106.31 70.7501 106.31H66.9401V106.29Z" fill="white"/>
<path d="M84.6603 106.29C83.9203 106.29 83.5503 105.92 83.5503 105.18V89.4699C83.5503 88.7299 83.9203 88.3599 84.6603 88.3599H94.1603C94.9003 88.3599 95.2703 88.7299 95.2703 89.4699C95.2703 90.2099 94.9003 90.5799 94.1603 90.5799H85.7703V96.1299H91.0303C91.7703 96.1299 92.1403 96.4999 92.1403 97.2399C92.1403 97.9799 91.7703 98.3499 91.0303 98.3499H85.7703V104.06H94.1603C94.9003 104.06 95.2703 104.43 95.2703 105.17C95.2703 105.91 94.9003 106.28 94.1603 106.28H84.6603V106.29Z" fill="white"/>
<path d="M114.21 106.34C113.92 106.52 113.64 106.58 113.38 106.51C113.12 106.44 112.89 106.26 112.71 105.97L108.61 99.1499H104.91V105.18C104.91 105.92 104.54 106.29 103.8 106.29C103.06 106.29 102.69 105.92 102.69 105.18V89.4699C102.69 88.7299 103.06 88.3599 103.8 88.3599H109.99C111.6 88.3599 112.84 88.7899 113.7 89.6499C114.56 90.5099 114.99 91.7499 114.99 93.3599V94.1499C114.99 95.5499 114.66 96.6699 114.01 97.4999C113.36 98.3299 112.41 98.8499 111.18 99.0499L114.64 104.83C114.98 105.45 114.83 105.95 114.22 106.34H114.21ZM104.9 96.9199H109.98C110.98 96.9199 111.7 96.7099 112.12 96.2899C112.54 95.8699 112.76 95.1499 112.76 94.1499V93.3599C112.76 92.3599 112.55 91.6499 112.12 91.2199C111.7 90.7899 110.98 90.5799 109.98 90.5799H104.9V96.9299V96.9199Z" fill="white"/>
<path d="M138.1 106.29C136.08 106.29 134.59 105.81 133.62 104.84C132.65 103.87 132.17 102.38 132.17 100.36V94.28C132.17 92.24 132.65 90.74 133.61 89.78C134.57 88.81 136.06 88.34 138.07 88.36H141.27C142.93 88.36 144.19 88.7 145.07 89.39C145.95 90.08 146.45 91.15 146.59 92.62C146.64 92.99 146.57 93.27 146.38 93.47C146.19 93.66 145.9 93.76 145.53 93.76C144.86 93.76 144.47 93.39 144.37 92.65C144.28 91.84 144 91.29 143.53 91.01C143.06 90.73 142.31 90.59 141.28 90.59H138.08C137.15 90.59 136.41 90.69 135.88 90.91C135.35 91.13 134.97 91.51 134.74 92.05C134.51 92.59 134.4 93.34 134.4 94.29V100.37C134.4 101.31 134.51 102.05 134.74 102.59C134.96 103.13 135.35 103.51 135.88 103.73C136.42 103.96 137.16 104.07 138.1 104.07H141.28C142.1 104.07 142.74 103.98 143.2 103.8C143.66 103.62 143.99 103.3 144.17 102.84C144.36 102.38 144.45 101.73 144.45 100.9V99.66L142.39 99.63C141.65 99.63 141.28 99.26 141.28 98.52C141.28 97.78 141.65 97.41 142.39 97.41L145.57 97.44C146.31 97.44 146.68 97.81 146.68 98.55V100.9C146.68 102.78 146.24 104.15 145.37 105.01C144.5 105.87 143.14 106.3 141.28 106.3H138.1V106.29Z" fill="white"/>
<path d="M165.33 106.34C165.04 106.52 164.76 106.58 164.5 106.51C164.24 106.44 164.01 106.26 163.83 105.97L159.73 99.1499H156.03V105.18C156.03 105.92 155.66 106.29 154.92 106.29C154.18 106.29 153.81 105.92 153.81 105.18V89.4699C153.81 88.7299 154.18 88.3599 154.92 88.3599H161.11C162.72 88.3599 163.96 88.7899 164.82 89.6499C165.68 90.5099 166.11 91.7499 166.11 93.3599V94.1499C166.11 95.5499 165.78 96.6699 165.13 97.4999C164.48 98.3299 163.53 98.8499 162.3 99.0499L165.76 104.83C166.1 105.45 165.95 105.95 165.34 106.34H165.33ZM156.02 96.9199H161.1C162.1 96.9199 162.82 96.7099 163.24 96.2899C163.66 95.8699 163.88 95.1499 163.88 94.1499V93.3599C163.88 92.3599 163.67 91.6499 163.24 91.2199C162.82 90.7899 162.1 90.5799 161.1 90.5799H156.02V96.9299V96.9199Z" fill="white"/>
<path d="M178.4 106.29C176.38 106.29 174.89 105.81 173.92 104.84C172.95 103.87 172.47 102.38 172.47 100.36V94.25C172.47 92.21 172.96 90.72 173.93 89.76C174.9 88.8 176.39 88.33 178.4 88.35H181.58C183.61 88.35 185.1 88.83 186.06 89.79C187.02 90.75 187.5 92.25 187.5 94.27V100.35C187.5 102.37 187.02 103.86 186.06 104.83C185.1 105.8 183.6 106.28 181.58 106.28H178.4V106.29ZM178.4 104.07H181.58C182.52 104.07 183.26 103.96 183.8 103.73C184.34 103.51 184.72 103.12 184.94 102.59C185.17 102.05 185.28 101.31 185.28 100.37V94.29C185.28 93.36 185.17 92.62 184.94 92.08C184.71 91.54 184.33 91.16 183.8 90.93C183.26 90.7 182.52 90.59 181.58 90.59H178.4C177.47 90.59 176.73 90.69 176.19 90.91C175.65 91.13 175.27 91.51 175.04 92.05C174.81 92.59 174.7 93.33 174.7 94.27V100.38C174.7 101.32 174.81 102.06 175.04 102.6C175.26 103.14 175.65 103.52 176.18 103.74C176.72 103.97 177.46 104.08 178.4 104.08V104.07Z" fill="white"/>
<path d="M200.93 106.29C198.91 106.29 197.42 105.81 196.45 104.84C195.48 103.87 195 102.38 195 100.36V89.4601C195 89.0901 195.09 88.8101 195.28 88.6301C195.47 88.4501 195.74 88.3501 196.11 88.3501C196.48 88.3501 196.76 88.4401 196.94 88.6301C197.12 88.8201 197.22 89.0901 197.22 89.4601V100.36C197.22 101.3 197.33 102.04 197.56 102.58C197.79 103.12 198.17 103.5 198.7 103.72C199.24 103.95 199.98 104.06 200.92 104.06H204.09C205.03 104.06 205.77 103.95 206.31 103.72C206.85 103.5 207.23 103.11 207.45 102.58C207.68 102.04 207.79 101.3 207.79 100.36V89.4601C207.79 89.0901 207.88 88.8101 208.07 88.6301C208.26 88.4501 208.53 88.3501 208.9 88.3501C209.27 88.3501 209.55 88.4401 209.73 88.6301C209.91 88.8201 210.01 89.0901 210.01 89.4601V100.36C210.01 102.38 209.53 103.87 208.57 104.84C207.61 105.81 206.11 106.29 204.09 106.29H200.92H200.93Z" fill="white"/>
<path d="M218.5 106.29C217.76 106.29 217.39 105.92 217.39 105.18V89.4699C217.39 88.7299 217.76 88.3599 218.5 88.3599H224.69C226.3 88.3599 227.54 88.7899 228.4 89.6499C229.26 90.5099 229.69 91.7499 229.69 93.3599V94.1499C229.69 95.7599 229.26 96.9999 228.4 97.8599C227.54 98.7199 226.3 99.1499 224.69 99.1499H219.61V105.18C219.61 105.92 219.24 106.29 218.5 106.29V106.29ZM219.61 96.9299H224.69C225.69 96.9299 226.41 96.7199 226.83 96.2999C227.25 95.8799 227.47 95.1599 227.47 94.1599V93.3699C227.47 92.3699 227.26 91.6599 226.83 91.2299C226.41 90.7999 225.69 90.5899 224.69 90.5899H219.61V96.9399V96.9299Z" fill="white"/>
<path d="M132.46 191C131.62 191 131.2 190.58 131.2 189.74V171.92C131.2 171.08 131.62 170.66 132.46 170.66C133.3 170.66 133.72 171.08 133.72 171.92V179.045L141.37 171.14C141.95 170.52 142.54 170.51 143.14 171.11C143.76 171.69 143.77 172.28 143.17 172.88L136.795 179.465L144.31 188.81C144.82 189.48 144.76 190.07 144.13 190.58C143.48 191.11 142.89 191.05 142.36 190.4L135.025 181.31L133.72 182.66V189.74C133.72 190.58 133.3 191 132.46 191ZM155.707 191C153.417 191 151.722 190.455 150.622 189.365C149.532 188.265 148.987 186.57 148.987 184.28V177.35C148.987 175.04 149.537 173.345 150.637 172.265C151.737 171.175 153.427 170.64 155.707 170.66H159.307C161.607 170.66 163.302 171.205 164.392 172.295C165.482 173.385 166.027 175.08 166.027 177.38V184.28C166.027 186.57 165.482 188.265 164.392 189.365C163.302 190.455 161.607 191 159.307 191H155.707ZM155.707 188.48H159.307C160.377 188.48 161.217 188.355 161.827 188.105C162.437 187.845 162.867 187.41 163.117 186.8C163.377 186.19 163.507 185.35 163.507 184.28V177.38C163.507 176.32 163.377 175.485 163.117 174.875C162.867 174.265 162.437 173.83 161.827 173.57C161.217 173.31 160.377 173.18 159.307 173.18H155.707C154.647 173.17 153.812 173.29 153.202 173.54C152.592 173.79 152.157 174.22 151.897 174.83C151.637 175.44 151.507 176.28 151.507 177.35V184.28C151.507 185.35 151.632 186.19 151.882 186.8C152.142 187.41 152.577 187.845 153.187 188.105C153.797 188.355 154.637 188.48 155.707 188.48ZM185.513 191.06C185.183 191.27 184.868 191.335 184.568 191.255C184.268 191.175 184.013 190.97 183.803 190.64L179.153 182.9H174.953V189.74C174.953 190.58 174.533 191 173.693 191C172.853 191 172.433 190.58 172.433 189.74V171.92C172.433 171.08 172.853 170.66 173.693 170.66H180.713C182.543 170.66 183.943 171.15 184.913 172.13C185.893 173.1 186.383 174.5 186.383 176.33V177.23C186.383 178.82 186.013 180.09 185.273 181.04C184.533 181.98 183.463 182.565 182.063 182.795L185.993 189.35C186.373 190.05 186.213 190.62 185.513 191.06ZM174.953 180.38H180.713C181.853 180.38 182.663 180.14 183.143 179.66C183.623 179.18 183.863 178.37 183.863 177.23V176.33C183.863 175.2 183.623 174.395 183.143 173.915C182.663 173.425 181.853 173.18 180.713 173.18H174.953V180.38ZM193.343 191C192.503 191 192.083 190.58 192.083 189.74V171.92C192.083 171.08 192.503 170.66 193.343 170.66H204.113C204.953 170.66 205.373 171.08 205.373 171.92C205.373 172.76 204.953 173.18 204.113 173.18H194.603V179.48H200.573C201.413 179.48 201.833 179.9 201.833 180.74C201.833 181.58 201.413 182 200.573 182H194.603V188.48H204.113C204.953 188.48 205.373 188.9 205.373 189.74C205.373 190.58 204.953 191 204.113 191H193.343ZM210.1 190.88C209.3 190.57 209.06 190.02 209.38 189.23L216.52 171.65C216.82 170.99 217.29 170.66 217.93 170.66H217.99C218.64 170.69 219.08 171.02 219.31 171.65L226.57 189.23C226.89 190.02 226.66 190.57 225.88 190.88C225.09 191.19 224.54 190.96 224.23 190.19L222.61 186.26H213.265L211.72 190.19C211.41 190.97 210.87 191.2 210.1 190.88ZM214.255 183.74H221.575L217.84 174.65L214.255 183.74Z" fill="white"/>
</svg>
