<svg height="102" preserveAspectRatio="xMidYMid" viewBox="0 0 256 102" width="256" xmlns="http://www.w3.org/2000/svg"><path d="m121.003082 49.7959599v29.7813115h-9.447864v-73.54663577h25.057379c6.041196-.1261936 11.882523 2.16597276 16.22568 6.36703897 4.394275 3.9526009 6.865473 9.6117517 6.777816 15.5214914.125859 5.9427479-2.349742 11.6441326-6.777816 15.609515-4.381618 4.178186-9.790178 6.2653229-16.22568 6.2614107h-15.609515zm0-34.7106319v25.6735443h15.844245c3.512252.1041086 6.905842-1.2763346 9.348104-3.8026187 2.427444-2.3600188 3.796982-5.6016243 3.796982-8.9872076 0-3.3855832-1.369538-6.6271887-3.796982-8.9872075-2.412642-2.5805781-5.816763-4.0016332-9.348104-3.9023788h-15.844245zm60.384177 12.5286896c6.983204 0 12.495436 1.8660999 16.536696 5.5982997 4.041261 3.7321999 6.059935 8.849304 6.056023 15.3513125v31.0136416h-9.037088v-6.9832041h-.410777c-3.912159 5.750874-9.115331 8.6263109-15.609515 8.6263109-5.543529 0-10.181394-1.6431068-13.913594-4.9293205-3.627359-3.0545864-5.684053-7.5819005-5.598299-12.3233013 0-5.2070838 1.967816-9.3481042 5.903448-12.4230613s9.189662-4.6163478 15.762089-4.6241721c5.610036 0 10.230296 1.0269417 13.86078 3.0808253v-2.1595119c.021664-3.2321531-1.411266-6.3027166-3.902379-8.3622401-2.498424-2.2541194-5.75448-3.4840453-9.119243-3.4446561-5.277503 0-9.453733 2.2260185-12.52869 6.6780556l-8.321162-5.2403372c4.577226-6.5724273 11.35113-9.858641 20.321711-9.858641zm-12.223542 36.5591272c-.012852 2.4396694 1.154511 4.7350462 3.13364 6.1616506 2.08955 1.6436641 4.683088 2.5143963 7.341166 2.4646603 3.986854-.0066626 7.808473-1.5935525 10.627381-4.4129155 3.129727-2.9458559 4.694591-6.4022485 4.694591-10.3691778-2.945856-2.3472955-7.053623-3.5209433-12.323302-3.5209433-3.837828 0-7.037974.9252257-9.600438 2.775677-2.587893 1.8778363-3.873038 4.1605812-3.873038 6.9010487zm86.691491-34.9160204-31.547652 72.5020896h-9.753012l11.707136-25.3683962-20.744224-47.1336934h10.269418l14.99335 36.1483505h.205388l14.582573-36.1483505z" fill="#5f6368"/><path d="m82.8243212 43.3761068c.0035626-2.8792398-.2398838-5.753478-.7276616-8.5911015h-39.8453409v16.272626h22.8215804c-.9436651 5.2517924-3.9920272 9.8900512-8.4385273 12.8397063v10.5628296h13.620182c7.9749365-7.3529031 12.5697674-18.2267494 12.5697674-31.0840604z" fill="#4285f4"/><path d="m42.2513187 84.6650344c11.4019878 0 21.0024264-3.7439363 28.0032351-10.1989989l-13.620182-10.5628297c-3.7908822 2.5702886-8.6732568 4.0373482-14.3830531 4.0373482-11.0205523 0-20.3745248-7.4291902-23.7194209-17.4404054h-14.03095871v10.8855828c7.17189081 14.2713043 21.77833711 23.278575 37.75037961 23.279303z" fill="#34a853"/><path d="m18.5318978 50.5001486c-1.7683265-5.2459449-1.7683265-10.926921 0-16.1728659v-10.8855828h-14.03095871c-5.99868462 11.9367481-5.99868462 26.0072834 0 37.9440315z" fill="#fbbc04"/><path d="m42.2513187 16.8868772c6.0254343-.0984396 11.8476033 2.1781507 16.2080753 6.3376979l12.0592306-12.0592306c-7.6468078-7.1822793-17.7771299-11.12547089-28.2673059-11.00294758-15.9720425.00072794-30.5784888 9.00799866-37.75037961 23.27930298l14.03095871 10.8855828c3.3448961-10.0112152 12.6988686-17.4404055 23.7194209-17.4404055z" fill="#ea4335"/></svg>