<svg id="Layer_1" data-name="Layer 1" xmlns="http://www.w3.org/2000/svg" viewBox="0 0 300 177.16"><defs><style>.cls-1{fill:#f7b749;}.cls-2{fill:#ed362f;}.cls-3{fill:#43b85c;}.cls-4{fill:#2cb4e2;}</style></defs><path d="M106.8,304q-3.48,0-5.14-1.66T100,297.19v-7q0-3.5,1.67-5.15c1.11-1.1,2.82-1.63,5.13-1.61h3.64q3.5,0,5.14,1.65c1.11,1.1,1.66,2.82,1.66,5.14v7q0,3.46-1.66,5.13T110.44,304Zm0-2.55h3.64a7,7,0,0,0,2.55-.38,2.36,2.36,0,0,0,1.31-1.32,6.66,6.66,0,0,0,.39-2.54v-7a6.68,6.68,0,0,0-.39-2.53,2.36,2.36,0,0,0-1.31-1.32,6.73,6.73,0,0,0-2.55-.4H106.8a7,7,0,0,0-2.54.37,2.4,2.4,0,0,0-1.32,1.3,6.76,6.76,0,0,0-.39,2.55v7a6.66,6.66,0,0,0,.39,2.54,2.33,2.33,0,0,0,1.31,1.32A7,7,0,0,0,106.8,301.43Z" transform="translate(-100 -161.42)"/><path d="M123.79,310.05a1.12,1.12,0,0,1-1.27-1.27V289.87a1.28,1.28,0,0,1,2.55,0v.38a5.18,5.18,0,0,1,2-1.24,8.25,8.25,0,0,1,2.71-.41H131a5.18,5.18,0,0,1,5.94,5.94V298a5.19,5.19,0,0,1-5.94,6h-5.89v4.8A1.13,1.13,0,0,1,123.79,310.05Zm1.28-8.62H131a3.79,3.79,0,0,0,2.69-.71,3.84,3.84,0,0,0,.71-2.69v-3.49a2.76,2.76,0,0,0-3.4-3.4H129.8a10.68,10.68,0,0,0-3.28.46c-.92.3-1.4.78-1.45,1.44Z" transform="translate(-100 -161.42)"/><path d="M144,297.34v.72a3.75,3.75,0,0,0,.71,2.67,3.86,3.86,0,0,0,2.69.7h2.48a6.6,6.6,0,0,0,2.3-.29,1.59,1.59,0,0,0,1-1,2,2,0,0,1,.47-.88,1.19,1.19,0,0,1,.9-.31,1.33,1.33,0,0,1,1,.34,1,1,0,0,1,.21,1,4,4,0,0,1-1.79,2.81,7.55,7.55,0,0,1-4,.92h-2.48a5.19,5.19,0,0,1-5.95-5.92v-3.52a6.18,6.18,0,0,1,1.46-4.53,6.09,6.09,0,0,1,4.49-1.41h2.48a5.18,5.18,0,0,1,6,5.94v1.52a1.13,1.13,0,0,1-1.27,1.28Zm3.4-6.2a3.77,3.77,0,0,0-2.69.69,3.83,3.83,0,0,0-.71,2.71v.25h9.28v-.25a2.76,2.76,0,0,0-3.4-3.4Z" transform="translate(-100 -161.42)"/><path d="M162.4,304a1.13,1.13,0,0,1-1.28-1.27V289.87a1.28,1.28,0,0,1,2.55,0v.5a6.09,6.09,0,0,1,4.74-1.77h.85a5.19,5.19,0,0,1,6,5.94v8.17a1.28,1.28,0,0,1-2.55,0v-8.17a3.79,3.79,0,0,0-.72-2.69,3.88,3.88,0,0,0-2.68-.71h-.85a11,11,0,0,0-3.17.42c-.9.28-1.43.72-1.57,1.32v9.83A1.12,1.12,0,0,1,162.4,304Z" transform="translate(-100 -161.42)"/><path d="M191.41,304a1.11,1.11,0,0,1-1.27-1.27v-18a1.3,1.3,0,0,1,.31-1,1.35,1.35,0,0,1,1-.3,1.33,1.33,0,0,1,1,.3,1.3,1.3,0,0,1,.31,1v18a1.31,1.31,0,0,1-.31,1A1.28,1.28,0,0,1,191.41,304Z" transform="translate(-100 -161.42)"/><path d="M200,304a1.12,1.12,0,0,1-1.27-1.27V289.87a1.27,1.27,0,0,1,2.54,0v.5A6.09,6.09,0,0,1,206,288.6h.85a5.19,5.19,0,0,1,5.95,5.94v8.17a1.28,1.28,0,0,1-2.55,0v-8.17a3.79,3.79,0,0,0-.72-2.69,3.86,3.86,0,0,0-2.68-.71H206a11,11,0,0,0-3.17.42c-.9.28-1.42.72-1.57,1.32v9.83A1.12,1.12,0,0,1,200,304Z" transform="translate(-100 -161.42)"/><path d="M220.33,304a1.12,1.12,0,0,1-1.27-1.27V291.14h-1.12a1.27,1.27,0,1,1,0-2.54h1.12v-.13a5.12,5.12,0,0,1,5.86-5.85c.73,0,1.09.42,1.09,1.27s-.36,1.28-1.09,1.28a3.72,3.72,0,0,0-2.61.68,3.67,3.67,0,0,0-.7,2.62v.13h3.12a1.27,1.27,0,1,1,0,2.54h-3.12v11.57A1.13,1.13,0,0,1,220.33,304Z" transform="translate(-100 -161.42)"/><path d="M231.17,304a1.13,1.13,0,0,1-1.28-1.27V289.87a1.28,1.28,0,0,1,2.55,0v1.18a5.7,5.7,0,0,1,2.29-1.83,7.58,7.58,0,0,1,3.18-.62,1.27,1.27,0,1,1,0,2.54,6.92,6.92,0,0,0-4,1,3.18,3.18,0,0,0-1.46,2.56v8A1.12,1.12,0,0,1,231.17,304Z" transform="translate(-100 -161.42)"/><path d="M246.37,304a5.06,5.06,0,1,1,0-10.07h6.42a2.88,2.88,0,0,0-.83-2.18,4.23,4.23,0,0,0-2.55-.59h-1.76a8.94,8.94,0,0,0-2.26.21,1.62,1.62,0,0,0-1,.74,2.51,2.51,0,0,1-.56.88,1.33,1.33,0,0,1-.87.24,1.36,1.36,0,0,1-1-.36.92.92,0,0,1-.21-1,3.86,3.86,0,0,1,1.9-2.51,8.54,8.54,0,0,1,4.05-.79h1.76a5.19,5.19,0,0,1,6,5.94v8.17a1.28,1.28,0,0,1-2.55,0V302a5.81,5.81,0,0,1-4.74,2Zm0-2.55h1.7a10.08,10.08,0,0,0,2.11-.2,4.14,4.14,0,0,0,1.69-.75,2.6,2.6,0,0,0,.94-1.57v-2.45h-6.44a2.82,2.82,0,0,0-2,.5,2.52,2.52,0,0,0,2,4.47Z" transform="translate(-100 -161.42)"/><path d="M264.67,304a5.2,5.2,0,0,1-3.05-.79,3.7,3.7,0,0,1-1.44-2.39,1.11,1.11,0,0,1,.25-1,1.31,1.31,0,0,1,1-.37,1.16,1.16,0,0,1,.9.31,2.35,2.35,0,0,1,.46.94,1,1,0,0,0,.62.6,4,4,0,0,0,1.26.15h5a2.42,2.42,0,0,0,1.59-.38,3.39,3.39,0,0,0,0-3.23,2.35,2.35,0,0,0-1.59-.39h-4.88a3.91,3.91,0,0,1-4.41-4.4,4.57,4.57,0,0,1,1.09-3.33,4.45,4.45,0,0,1,3.32-1.1h4.73c2.38,0,3.78,1,4.22,3a1,1,0,0,1-.24,1,1.42,1.42,0,0,1-1,.35,1.16,1.16,0,0,1-.88-.32,2.09,2.09,0,0,1-.45-.87.92.92,0,0,0-.56-.48,3.63,3.63,0,0,0-1.08-.13h-4.73a2.26,2.26,0,0,0-1.51.35,2.35,2.35,0,0,0-.35,1.54,2.19,2.19,0,0,0,.37,1.47,2.15,2.15,0,0,0,1.49.38h4.88a4.57,4.57,0,1,1,0,9.1Z" transform="translate(-100 -161.42)"/><path d="M285.8,304a5.09,5.09,0,0,1-5.86-5.82v-7h-1.49a1.27,1.27,0,1,1,0-2.54h1.49v-2.22a1.28,1.28,0,0,1,2.55,0v2.22H286a1.27,1.27,0,0,1,0,2.54h-3.49v7a3.61,3.61,0,0,0,.7,2.6,3.78,3.78,0,0,0,2.61.67,1.37,1.37,0,0,1,.93.31,1.22,1.22,0,0,1,.34,1A1.12,1.12,0,0,1,285.8,304Z" transform="translate(-100 -161.42)"/><path d="M293,304a1.12,1.12,0,0,1-1.27-1.27V289.87a1.27,1.27,0,0,1,2.54,0v1.18a5.7,5.7,0,0,1,2.29-1.83,7.58,7.58,0,0,1,3.18-.62,1.27,1.27,0,0,1,0,2.54,6.92,6.92,0,0,0-4,1,3.18,3.18,0,0,0-1.46,2.56v8A1.12,1.12,0,0,1,293,304Z" transform="translate(-100 -161.42)"/><path d="M316.87,288.6a1.13,1.13,0,0,1,1.28,1.27v12.84a1.28,1.28,0,0,1-2.55,0v-.5a6.08,6.08,0,0,1-4.74,1.77H310a5.18,5.18,0,0,1-5.94-6v-8.16a1.28,1.28,0,0,1,2.55,0V298a3.8,3.8,0,0,0,.72,2.7,3.84,3.84,0,0,0,2.67.7h.85A10.77,10.77,0,0,0,314,301q1.35-.42,1.56-1.32v-9.83A1.12,1.12,0,0,1,316.87,288.6Z" transform="translate(-100 -161.42)"/><path d="M329.38,304a5.2,5.2,0,0,1-5.95-6v-3.52a6.12,6.12,0,0,1,1.45-4.49,6,6,0,0,1,4.5-1.42h2.49a7.16,7.16,0,0,1,3.56.75,3.54,3.54,0,0,1,1.66,2.34,1,1,0,0,1-.22,1,1.43,1.43,0,0,1-1,.35,1.08,1.08,0,0,1-.86-.31,2.68,2.68,0,0,1-.5-.85,1.3,1.3,0,0,0-.84-.57,7.7,7.7,0,0,0-1.77-.16h-2.49a2.74,2.74,0,0,0-3.4,3.37V298a2.77,2.77,0,0,0,3.4,3.4h2.49a7.17,7.17,0,0,0,1.77-.16,1.26,1.26,0,0,0,.84-.56,2.66,2.66,0,0,1,.5-.87,1.22,1.22,0,0,1,.89-.29,1.38,1.38,0,0,1,1,.35,1,1,0,0,1,.22,1,3.54,3.54,0,0,1-1.66,2.33,7.05,7.05,0,0,1-3.56.76Z" transform="translate(-100 -161.42)"/><path d="M348.59,304a5.09,5.09,0,0,1-5.86-5.82v-7h-1.49a1.27,1.27,0,0,1,0-2.54h1.49v-2.22a1.28,1.28,0,0,1,2.55,0v2.22h3.49a1.27,1.27,0,1,1,0,2.54h-3.49v7a3.61,3.61,0,0,0,.7,2.6,3.78,3.78,0,0,0,2.61.67,1.35,1.35,0,0,1,.93.31,1.22,1.22,0,0,1,.34,1A1.12,1.12,0,0,1,348.59,304Z" transform="translate(-100 -161.42)"/><path d="M367,288.6a1.13,1.13,0,0,1,1.28,1.27v12.84a1.28,1.28,0,0,1-2.55,0v-.5A6.09,6.09,0,0,1,361,304h-.85a5.19,5.19,0,0,1-5.95-6v-8.16a1.28,1.28,0,0,1,2.55,0V298a3.8,3.8,0,0,0,.72,2.7,3.87,3.87,0,0,0,2.68.7H361a10.7,10.7,0,0,0,3.17-.41c.9-.28,1.42-.72,1.57-1.32v-9.83A1.12,1.12,0,0,1,367,288.6Z" transform="translate(-100 -161.42)"/><path d="M375.57,304a1.12,1.12,0,0,1-1.27-1.27V289.87a1.27,1.27,0,0,1,2.54,0v1.18a5.7,5.7,0,0,1,2.29-1.83,7.58,7.58,0,0,1,3.18-.62,1.27,1.27,0,1,1,0,2.54,6.92,6.92,0,0,0-4,1,3.18,3.18,0,0,0-1.46,2.56v8A1.12,1.12,0,0,1,375.57,304Z" transform="translate(-100 -161.42)"/><path d="M388.16,297.34v.72a3.74,3.74,0,0,0,.72,2.67,3.83,3.83,0,0,0,2.68.7h2.49a6.54,6.54,0,0,0,2.29-.29,1.58,1.58,0,0,0,1-1,2.08,2.08,0,0,1,.46-.88,1.23,1.23,0,0,1,.9-.31,1.35,1.35,0,0,1,1,.34,1,1,0,0,1,.21,1,4,4,0,0,1-1.79,2.81,7.58,7.58,0,0,1-4,.92h-2.49a6.13,6.13,0,0,1-4.48-1.45,6.06,6.06,0,0,1-1.47-4.47v-3.52a6.14,6.14,0,0,1,1.47-4.53,6.08,6.08,0,0,1,4.48-1.41h2.49a5.19,5.19,0,0,1,5.95,5.94v1.52a1.13,1.13,0,0,1-1.27,1.28Zm3.4-6.2a3.74,3.74,0,0,0-2.68.69,3.83,3.83,0,0,0-.72,2.71v.25h9.29v-.25a2.76,2.76,0,0,0-3.4-3.4Z" transform="translate(-100 -161.42)"/><path d="M180.35,338.57a.56.56,0,0,1-.64-.64v-12.1a.57.57,0,0,1,.64-.65h7.41a.59.59,0,0,1,.65.65.57.57,0,0,1-.65.64H181v4.69h4.48a.64.64,0,1,1,0,1.28H181v5.49A.56.56,0,0,1,180.35,338.57Z" transform="translate(-100 -161.42)"/><path d="M196.24,338.57a3.77,3.77,0,0,1-4.36-4.36v-4.68a3.76,3.76,0,0,1,4.35-4.35h2.46a3.77,3.77,0,0,1,4.37,4.36v4.67a3.77,3.77,0,0,1-4.37,4.36Zm0-1.28h2.45a4.59,4.59,0,0,0,1.83-.3,1.8,1.8,0,0,0,1-1,4.77,4.77,0,0,0,.29-1.82v-4.67a4.68,4.68,0,0,0-.29-1.81,1.82,1.82,0,0,0-1-1,4.79,4.79,0,0,0-1.83-.29h-2.46a4.38,4.38,0,0,0-1.81.28,1.75,1.75,0,0,0-1,.95,4.61,4.61,0,0,0-.29,1.83v4.68a4.59,4.59,0,0,0,.29,1.82,1.76,1.76,0,0,0,1,1A4.48,4.48,0,0,0,196.24,337.29Z" transform="translate(-100 -161.42)"/><path d="M213,338.57a3.77,3.77,0,0,1-4.36-4.36v-8.38a.65.65,0,0,1,.17-.48.64.64,0,0,1,.47-.17.59.59,0,0,1,.65.65v8.38a4.59,4.59,0,0,0,.29,1.82,1.77,1.77,0,0,0,1,1,4.57,4.57,0,0,0,1.82.3h2.45a4.59,4.59,0,0,0,1.83-.3,1.8,1.8,0,0,0,1-1,4.77,4.77,0,0,0,.29-1.82v-8.38a.61.61,0,0,1,.17-.48.64.64,0,0,1,.47-.17.69.69,0,0,1,.48.17.65.65,0,0,1,.16.48v8.38a3.76,3.76,0,0,1-4.36,4.36Z" transform="translate(-100 -161.42)"/><path d="M226.33,338.57a.56.56,0,0,1-.64-.64v-12.1a.57.57,0,0,1,.64-.65.9.9,0,0,1,.66.38l8.5,10.94h-.3V325.83a.64.64,0,1,1,1.28,0v12.1a.56.56,0,0,1-.64.64.83.83,0,0,1-.65-.38l-8.51-10.93h.3v10.67A.56.56,0,0,1,226.33,338.57Z" transform="translate(-100 -161.42)"/><path d="M243.12,338.57a.56.56,0,0,1-.64-.64v-12.1a.57.57,0,0,1,.64-.65H248a4.31,4.31,0,0,1,5,5v3.44a5.2,5.2,0,0,1-1.19,3.77,5.14,5.14,0,0,1-3.79,1.2Zm.65-1.28H248a5.43,5.43,0,0,0,2.18-.36,2.13,2.13,0,0,0,1.16-1.16,5.47,5.47,0,0,0,.35-2.17v-3.44a5.43,5.43,0,0,0-.35-2.17,2.15,2.15,0,0,0-1.16-1.17,5.64,5.64,0,0,0-2.18-.35h-4.27Z" transform="translate(-100 -161.42)"/><path d="M257.56,338.51a.58.58,0,0,1-.35-.85l5-12a.74.74,0,0,1,.73-.5H263a.73.73,0,0,1,.69.5l5,12a.65.65,0,1,1-1.19.5l-1.26-3h-6.59l-1.26,3A.57.57,0,0,1,257.56,338.51Zm2.62-4.67h5.52l-2.77-6.62Z" transform="translate(-100 -161.42)"/><path d="M275.75,338.58a.61.61,0,0,1-.47-.17.64.64,0,0,1-.17-.47V326.47h-4.22a.59.59,0,0,1-.64-.64.65.65,0,0,1,.17-.48.64.64,0,0,1,.47-.17h9.73a.64.64,0,0,1,.47.17.65.65,0,0,1,.17.48.59.59,0,0,1-.64.64H276.4v11.47a.66.66,0,0,1-.17.47A.65.65,0,0,1,275.75,338.58Z" transform="translate(-100 -161.42)"/><path d="M286.38,338.57a.61.61,0,0,1-.48-.17.64.64,0,0,1-.17-.47v-12.1a.62.62,0,0,1,.17-.48.64.64,0,0,1,1.12.48v12.1a.68.68,0,0,1-.16.47A.61.61,0,0,1,286.38,338.57Z" transform="translate(-100 -161.42)"/><path d="M297,338.57a3.77,3.77,0,0,1-4.36-4.36v-4.68a3.75,3.75,0,0,1,4.35-4.35h2.46a3.76,3.76,0,0,1,4.36,4.36v4.67a3.76,3.76,0,0,1-4.36,4.36Zm0-1.28h2.45a4.5,4.5,0,0,0,1.82-.3,1.74,1.74,0,0,0,1-1,4.59,4.59,0,0,0,.29-1.82v-4.67a4.5,4.5,0,0,0-.29-1.81,1.76,1.76,0,0,0-1-1,4.7,4.7,0,0,0-1.82-.29H297a4.35,4.35,0,0,0-1.81.28,1.75,1.75,0,0,0-1,.95,4.61,4.61,0,0,0-.29,1.83v4.68a4.59,4.59,0,0,0,.29,1.82,1.74,1.74,0,0,0,1,1A4.57,4.57,0,0,0,297,337.29Z" transform="translate(-100 -161.42)"/><path d="M310.15,338.57a.56.56,0,0,1-.64-.64v-12.1a.57.57,0,0,1,.64-.65.9.9,0,0,1,.66.38l8.5,10.94H319V325.83a.57.57,0,0,1,.64-.65.58.58,0,0,1,.65.65v12.1a.57.57,0,0,1-.65.64.83.83,0,0,1-.65-.38l-8.51-10.93h.31v10.67A.57.57,0,0,1,310.15,338.57Z" transform="translate(-100 -161.42)"/><polygon class="cls-1" points="100 16.67 100 25 157.32 25 100 82.32 105.89 88.22 177.44 16.67 100 16.67"/><polygon class="cls-2" points="185.78 8.33 194.11 0 100 0 100 8.33 185.78 8.33"/><polygon class="cls-3" points="191.67 14.22 191.67 100 200 100 200 5.89 191.67 14.22"/><polygon class="cls-4" points="183.33 100 183.33 22.56 111.78 94.11 117.68 100 175 42.68 175 100 183.33 100"/></svg>