<?xml version="1.0" encoding="UTF-8"?>
<svg width="780px" height="676px" viewBox="0 0 780 676" version="1.1" xmlns="http://www.w3.org/2000/svg" xmlns:xlink="http://www.w3.org/1999/xlink">
    <title>logo-invert</title>
    <g id="Page-1" stroke="none" stroke-width="1" fill="none" fill-rule="evenodd">
        <g id="logo-invert" transform="translate(0, 0.29)" fill="#FFFFFF" fill-rule="nonzero">
            <path d="M413.91,191.41 L441.137,144.226 L386.621,144.226 L359.394,191.41 L262.206,359.77 L234.979,406.954 L262.206,454.138 L289.433,406.954 L413.91,191.41 Z M5.68434189e-14,1.13686838e-13 L207.74,359.79 L332.17,144.25 L277.654,144.25 L207.693,265.39 L81.743,47.19 L698.253,47.19 L390.023,581.13 L343.906,501.341 L550.076,144.251 L495.56,144.251 L289.44,501.291 L390.01,675.451 L780,0.021 L5.68434189e-14,1.13686838e-13 Z" id="Shape" transform="translate(390, 337.7255) rotate(-180) translate(-390, -337.7255)"></path>
        </g>
    </g>
</svg>